<svg id="Ebene_1" data-name="Ebene 1" xmlns="http://www.w3.org/2000/svg" width="201.64" height="37.85" viewBox="0 0 201.64 37.85"><defs><style>.cls-1{fill:#fff;}</style></defs><title>porsche-informatik-logo</title><path class="cls-1" d="M5.31,4.79a3.1,3.1,0,0,0-.16-1.27,2.31,2.31,0,0,0-.21-.38,2.78,2.78,0,0,0-.43-.46A3.09,3.09,0,0,0,3,2.21L1.76,2.1V1.48H5.87l5-.05,2,0a22.77,22.77,0,0,1,3.31.16,8.18,8.18,0,0,1,2.24.51A9.21,9.21,0,0,1,20,2.7a4.53,4.53,0,0,1,1.2.76,4.27,4.27,0,0,1,.93,1.16,4.45,4.45,0,0,1,.43,1.09,2.71,2.71,0,0,1,.13.84,5.06,5.06,0,0,1,0,.65,5.08,5.08,0,0,1-.27.7A4.28,4.28,0,0,1,21,9.64a7.7,7.7,0,0,1-3.39,1.44,25.09,25.09,0,0,1-5,.49c-.32,0-.64,0-1,0s-.67,0-1,0L9,11.45v6a5.55,5.55,0,0,0,.11.87,1.84,1.84,0,0,0,.51.86,3.42,3.42,0,0,0,1.17.49,4.47,4.47,0,0,1,.93.11h1v.76l-5.36-.05-3.23,0-2.43.06,0-.82h.48a5.53,5.53,0,0,0,1-.05,1.74,1.74,0,0,0,.51-.11,3.42,3.42,0,0,0,.53-.24,1.4,1.4,0,0,0,.8-.89,5.48,5.48,0,0,0,.24-1.71V4.79ZM8.8,9.91l1,.35,1.28.24a12.67,12.67,0,0,0,2.13.14l.72,0h.59a2.5,2.5,0,0,0,.77-.14,3.48,3.48,0,0,0,.77-.08c.24-.11.48-.22.77-.38a3.12,3.12,0,0,0,1.09-.84,4,4,0,0,0,.69-1A2.35,2.35,0,0,0,18.91,7l-.08-.76A4.32,4.32,0,0,0,18.27,5a4.74,4.74,0,0,0-2-1.82,9.63,9.63,0,0,0-4.64-.92l-1.28.08L8.8,2.38V9.91Z" transform="translate(-1.68 -1.07)"/><path class="cls-1" d="M27,8a8.84,8.84,0,0,1,2.79-3.25A16.33,16.33,0,0,1,35.1,2.1a24.65,24.65,0,0,1,6.66-.95,27.57,27.57,0,0,1,4.78.49A18.13,18.13,0,0,1,52,3.73a9.3,9.3,0,0,1,3.9,3.63A7.69,7.69,0,0,1,57,11a7.54,7.54,0,0,1-.85,3.17,8.88,8.88,0,0,1-3.1,3.39A16.61,16.61,0,0,1,47.85,20a24.8,24.8,0,0,1-6.27.79,20.36,20.36,0,0,1-4.73-.43,21.94,21.94,0,0,1-3.15-.9,15.24,15.24,0,0,1-2.4-1.14,12,12,0,0,1-2.07-1.46,11.07,11.07,0,0,1-1.89-2.3,6.54,6.54,0,0,1-1-3.71A7.31,7.31,0,0,1,27,8Zm4.65,7a8.2,8.2,0,0,0,3.46,3,25.52,25.52,0,0,0,3.18,1.27,19.28,19.28,0,0,0,2,.41c.52.05,1.13.08,1.88.11l1.29,0,2-.27a11.66,11.66,0,0,0,3-.95A6.74,6.74,0,0,0,51,16.63a11.37,11.37,0,0,0,1.6-2.33,4.83,4.83,0,0,0,.57-2.44,3.65,3.65,0,0,0,0-.51,4.16,4.16,0,0,0-.08-.71,4.1,4.1,0,0,0-.18-.81,4.78,4.78,0,0,0-.34-1,8.24,8.24,0,0,0-1.52-2.6,7.33,7.33,0,0,0-3-2.3,18.84,18.84,0,0,0-3.43-1.33,12.61,12.61,0,0,0-3.51-.46A13.07,13.07,0,0,0,35,3.35a10.7,10.7,0,0,0-3.51,2.93,6.77,6.77,0,0,0-1.21,4.12A8,8,0,0,0,31.69,15Z" transform="translate(-1.68 -1.07)"/><path class="cls-1" d="M68.34,1.56l4.49-.14h1.54a11.16,11.16,0,0,1,2.45.41,6.4,6.4,0,0,1,3,1.71,4,4,0,0,1,1.41,3,3.65,3.65,0,0,1-.78,2.28,4.38,4.38,0,0,1-1.39,1.38c-.4.19-.81.35-1.18.52s-.6.24-.78.33L76,11.35l1.76,1.84,3.38,3.74a17.5,17.5,0,0,0,1.21,1.27,10,10,0,0,0,.78.68,9.92,9.92,0,0,0,.83.57,6.54,6.54,0,0,0,1.46.49c.35.08.65.08,1,.14s.68,0,1.08.05v.63H85.07a13.2,13.2,0,0,1-2.72-.25,5.45,5.45,0,0,1-2.19-.81l-1.08-.81-.81-.71-4.64-5a6.37,6.37,0,0,0-.88-.81,3.61,3.61,0,0,0-.66-.3c-.18-.05-.48-.08-.88-.16l-2.6-.13v6l.15.7a1.53,1.53,0,0,0,.43.73,2.37,2.37,0,0,0,1.06.49,9.13,9.13,0,0,0,1.49.13h.4l-.05.76L69,20.51l-2.34,0L62,20.53v-.79c.63,0,1.13,0,1.41-.05a3.09,3.09,0,0,0,.58-.14,1.87,1.87,0,0,0,.38-.19,1.54,1.54,0,0,0,.58-.43,2.78,2.78,0,0,0,.28-.84l.08-1.46V5.84a4.62,4.62,0,0,0-.5-2.66,2.26,2.26,0,0,0-1.34-.86,16.76,16.76,0,0,0-1.74-.22V1.54h5.34l1.26,0Zm.25,9.05,1.94.16,1.29.05h.33a5.2,5.2,0,0,0,.91-.05,9.53,9.53,0,0,0,1.51-.22,7.42,7.42,0,0,0,2.22-1A2.81,2.81,0,0,0,78.19,7a3.35,3.35,0,0,0-.45-1.68,9.77,9.77,0,0,0-1.41-1.57A5,5,0,0,0,74,2.65a14.73,14.73,0,0,0-2.75-.32h-.73a2.66,2.66,0,0,0-.66.05h-.71a2.53,2.53,0,0,1-.53.08v8.16Z" transform="translate(-1.68 -1.07)"/><path class="cls-1" d="M107.13,6.16h-1.36l0-.38,0-.57a2.67,2.67,0,0,0-.41-.79,3,3,0,0,0-.64-.82,3.23,3.23,0,0,0-.77-.52,4.56,4.56,0,0,0-1.74-.71c-.56-.11-1.13-.22-1.66-.3L99.21,2h-.66a3.3,3.3,0,0,0-.54.05l-1.1.19a4.51,4.51,0,0,0-2.3,1.17,2.57,2.57,0,0,0-.92,1.82A2.39,2.39,0,0,0,94.51,7a5.56,5.56,0,0,0,1.71,1.09l1.3.49c.26.08.84.24,1.79.54l2.4.68a7.9,7.9,0,0,1,1.23.38,17.43,17.43,0,0,1,1.94.73,5.07,5.07,0,0,1,2.35,1.71,4.34,4.34,0,0,1,.89,2.42,3.77,3.77,0,0,1-.36,1.55,8.4,8.4,0,0,1-1.15,1.66,6.65,6.65,0,0,1-2.5,1.5,19,19,0,0,1-3.09.79c-1,.11-2,.14-3.3.16h-1c-.28,0-.61,0-1,0a5.41,5.41,0,0,1-1.23-.11c-.49,0-1-.11-1.69-.19a21,21,0,0,1-2.17-.32V15.68h1a5.2,5.2,0,0,0,.2.68c.1.19.15.35.23.49s.15.25.28.41A4.22,4.22,0,0,0,93,18a4.71,4.71,0,0,0,1.79,1,16.09,16.09,0,0,0,2.25.62,16.84,16.84,0,0,0,1.81.14,10.65,10.65,0,0,0,1.66-.11,15,15,0,0,0,1.92-.46,5,5,0,0,0,2-1.22,2.8,2.8,0,0,0,.82-1.85,2.76,2.76,0,0,0-.54-1.44,3.19,3.19,0,0,0-1.33-1.19,15.3,15.3,0,0,0-1.41-.63c-.36-.16-.87-.35-1.56-.6l-3.17-1L95,10.59A6.07,6.07,0,0,1,94,10.16a11.12,11.12,0,0,1-1.41-.65,3.56,3.56,0,0,1-1.43-1.41,4,4,0,0,1-.64-1.93,3.08,3.08,0,0,1,.79-2.09,5.16,5.16,0,0,1,1.48-1.33c.43-.25.87-.44,1.33-.66s1.1-.35,1.92-.62a14.69,14.69,0,0,1,3.81-.38H101a11.16,11.16,0,0,1,1.46.11,18.16,18.16,0,0,1,2.17.25c1.07.16,1.89.24,2.48.35V6.16Z" transform="translate(-1.68 -1.07)"/><path class="cls-1" d="M140.69,6.17h-.83a2.12,2.12,0,0,0-.59-.73c-.23-.24-.39-.41-.49-.54s-.36-.32-.82-.7a7.68,7.68,0,0,0-2.4-1.06,17.28,17.28,0,0,0-3.23-.76,18.73,18.73,0,0,0-3.1-.22,14,14,0,0,0-4.47.51,20.54,20.54,0,0,0-2.27.92,15.33,15.33,0,0,0-1.86,1.22,7.1,7.1,0,0,0-1.89,2.63A8.8,8.8,0,0,0,117.9,11a8.35,8.35,0,0,0,.41,2.36,7.8,7.8,0,0,0,1.78,2.79,8.68,8.68,0,0,0,2.69,2c.85.35,1.6.6,2.22.78s1.24.33,1.94.49a13,13,0,0,0,2.82.24,15.17,15.17,0,0,0,5.45-.92,15.45,15.45,0,0,0,3.31-1.46,12.19,12.19,0,0,0,1.19-.86l.88-.79.36.08v2l-1,.65-1.55.79c-.34.14-.78.3-1.42.52s-1.47.38-2.71.68a23.57,23.57,0,0,1-4.88.43,23.8,23.8,0,0,1-7.16-.92,18.68,18.68,0,0,1-4.47-2,11.41,11.41,0,0,1-2.66-2.74A6.7,6.7,0,0,1,114,11.43a7.89,7.89,0,0,1,1.4-4.36,10.54,10.54,0,0,1,3.74-3.39,15,15,0,0,1,4.29-1.73,30.69,30.69,0,0,1,3.41-.63c1-.11,1.91-.13,2.9-.16.44,0,1,0,1.5,0a11.72,11.72,0,0,1,2.17.19,13.86,13.86,0,0,1,1.73.22,14.28,14.28,0,0,1,1.83.35l1.73.32c.44.06,1.08.22,2,.43V6.17Z" transform="translate(-1.68 -1.07)"/><path class="cls-1" d="M146,1.43c.49,0,1,0,1.59,0a10,10,0,0,1,1.56.08l2.36,0,2.89,0,2.05-.11v.81l-1.18,0a2.78,2.78,0,0,0-1.26.3,1.28,1.28,0,0,0-.72.54,2.25,2.25,0,0,0-.18.6c0,.22,0,.43-.05.71L153,5l0,.54v4.74h16.86V5.49c0-.35,0-.68,0-.95a3.27,3.27,0,0,0-.11-.84,1.32,1.32,0,0,0-.43-.81,2.94,2.94,0,0,0-1.08-.57l-.95-.08a2.84,2.84,0,0,1-.49,0l-.64,0V1.43h1.59c.54,0,1.08,0,1.64.05l2.41.06,5-.11v.78h-.59a5.34,5.34,0,0,0-.64,0,3.17,3.17,0,0,0-.95.19,1,1,0,0,0-.75.46,3.44,3.44,0,0,0-.28.62c-.05.22-.05.41-.1.54l-.08,1.52v11.3a2.85,2.85,0,0,0,.46,2,2.39,2.39,0,0,0,1.13.65l.61.11c.15,0,.36,0,.69,0l.49,0v.89l-2.82,0H172.9a2.45,2.45,0,0,1-1-.11l-5.49.11v-.87h.28a10.79,10.79,0,0,0,1.74-.11,1.43,1.43,0,0,0,1-.57,4,4,0,0,0,.36-2V11.29H153v5.86l.1.84a2.21,2.21,0,0,0,.07.49,2.11,2.11,0,0,0,.36.65,1.94,1.94,0,0,0,.79.43,7.43,7.43,0,0,0,1.23.14l.82-.05v.87l-2.92,0h-1.1a2.94,2.94,0,0,1-1.13-.11,13.62,13.62,0,0,0-1.51.08c-.74,0-1.23,0-1.46,0l-2.18,0v-.84a5.6,5.6,0,0,0,2.79-.46,2.58,2.58,0,0,0,.61-2.06V4.92a3.07,3.07,0,0,0-.05-.73c0-.19,0-.41-.1-.65a1.13,1.13,0,0,0-.28-.65,1.35,1.35,0,0,0-.56-.35l-.85-.22a8,8,0,0,0-1.31-.08H146V1.43Z" transform="translate(-1.68 -1.07)"/><path class="cls-1" d="M203.26,25.41v.79H1.68v-.79Zm-22-24h19.38l.49,4.42H199.9a2.92,2.92,0,0,0-.23-1.33,2.68,2.68,0,0,0-1.15-1.11,5.93,5.93,0,0,0-2.11-.7c-.87-.11-1.72-.19-2.54-.24s-1.67-.08-2.6-.08h-3.16V10h2.75l2.88-.11h.9a2.1,2.1,0,0,0,.77-.13,1.7,1.7,0,0,0,.77-.35A1.77,1.77,0,0,0,196.7,9a1.27,1.27,0,0,0,.13-.65l0-.49,1.44,0-.15,1.38v2.41a6,6,0,0,0,.13,1.19H197a1.7,1.7,0,0,0-.23-.9,1.23,1.23,0,0,0-.41-.43,2.48,2.48,0,0,0-.62-.27c-.18-.05-.43-.11-.79-.19s-.85-.05-1.59-.08l-1.9-.06h-3.16v6.42l0,.35a1.85,1.85,0,0,0,.36,1.17,2.14,2.14,0,0,0,.82.48c.26.06.56.08.85.14s.57,0,.77.05l2,0h1.7a12.84,12.84,0,0,0,2-.13,10.41,10.41,0,0,0,1.52-.19,6.31,6.31,0,0,0,1.23-.3,3.39,3.39,0,0,0,1.31-.76,3,3,0,0,0,.72-.9,4.55,4.55,0,0,0,.26-.68c.05-.19.1-.46.26-.92h1.23l-.8,4.82H181.29v-.81a5.79,5.79,0,0,0,2.8-.41c.41-.27.61-.9.61-1.9V4.79c0-1-.13-1.52-.36-1.74a2.09,2.09,0,0,0-.59-.43,2,2,0,0,0-.59-.24l-.62-.11a5.64,5.64,0,0,1-.61,0l-.64,0V1.43Z" transform="translate(-1.68 -1.07)"/><path class="cls-1" d="M41.93,31.64a1.21,1.21,0,0,0-.31-1,1.55,1.55,0,0,0-1-.25h-.38V30l3,0h2.1l0,.38h-.44l-.66.09c-.22,0-.35.16-.47.41a4.6,4.6,0,0,0-.09.72l0,.51v5a1.46,1.46,0,0,0,.28,1.07,1.07,1.07,0,0,0,.53.15c.25,0,.53,0,.85.07v.37H40.17v-.44h.63a1.26,1.26,0,0,0,.56-.12l.34-.25a2.79,2.79,0,0,0,.22-1.19V31.64Z" transform="translate(-1.68 -1.07)"/><path class="cls-1" d="M58.81,32.18l-.09-.88a.72.72,0,0,0-.37-.66,2.77,2.77,0,0,0-1.1-.22V30h4.13v.38a6.45,6.45,0,0,0-.86,0,.62.62,0,0,0-.43.41,2.06,2.06,0,0,0-.21.63l0,.63-.18,4.39-.09,2.42H59l-9.7-7.5v3.23l.15,2.26a2.49,2.49,0,0,0,.21,1.16.78.78,0,0,0,.58.25l.86.1v.4l-1.9-.06-2.36,0v-.34l.67-.1c.4,0,.64-.15.73-.37a2.2,2.2,0,0,0,.15-.85l.09-5.62,0-.54a.89.89,0,0,0-.43-.37,4.62,4.62,0,0,0-.64-.22c-.18,0-.43,0-.8-.07V30h3.12l6,4.55L59,37.23l-.15-5.05Z" transform="translate(-1.68 -1.07)"/><path class="cls-1" d="M62.71,30h9.1L71.93,32h-.54l-.15-.6a1.51,1.51,0,0,0-1-.72,9.3,9.3,0,0,0-1.95-.19h-2.4v3.42h2.81a2.32,2.32,0,0,0,.9-.13.65.65,0,0,0,.39-.28l.12-.47h.51l-.06,1.29.06,1.13H70.1A.71.71,0,0,0,70,35c0-.13-.09-.25-.36-.41a1.55,1.55,0,0,0-.72-.25h-.66l-.87,0h-1.5v3a1.09,1.09,0,0,0,.3.88,1.48,1.48,0,0,0,.48.15c.21,0,.45,0,.72.07v.34l-2.19,0-2.51,0v-.37a3.78,3.78,0,0,0,1.11-.13c.27-.09.42-.41.45-.94V31.49a1.42,1.42,0,0,0-.18-.73c-.09-.22-.54-.34-1.41-.34V30Z" transform="translate(-1.68 -1.07)"/><path class="cls-1" d="M74.39,33.09a6.56,6.56,0,0,1,1.8-1.95c1-.82,2.7-1.22,5-1.22a10.17,10.17,0,0,1,1.08,0,6.63,6.63,0,0,1,1.11.22,7,7,0,0,1,2.34.78,5.45,5.45,0,0,1,1.86,1.57,3,3,0,0,1,.66,1.89,3.35,3.35,0,0,1-.39,1.54,3.49,3.49,0,0,1-1.17,1.35,15.38,15.38,0,0,1-1.35.79,12.05,12.05,0,0,1-1.62.57,11.67,11.67,0,0,1-2.61.28,10.68,10.68,0,0,1-2.46-.25,7.09,7.09,0,0,1-2-.69,13.7,13.7,0,0,1-1.17-.82,4.29,4.29,0,0,1-.78-.85,4,4,0,0,1-.6-1.95,3.19,3.19,0,0,1,.3-1.29Zm2.16,3.2a3.63,3.63,0,0,0,1.32,1.26c.42.22.78.34,1.08.5a4.2,4.2,0,0,1,.81.28,7.65,7.65,0,0,0,1.62.16,6,6,0,0,0,.72,0,2.43,2.43,0,0,0,.69-.1,2.72,2.72,0,0,0,.69-.12,7.73,7.73,0,0,0,1-.35,3,3,0,0,0,1.2-1.07,5.1,5.1,0,0,0,.51-.69,3,3,0,0,0,.24-.69c.06-.25.06-.44.09-.6a2.33,2.33,0,0,0,0-.53,4.16,4.16,0,0,0-.27-.91,3.65,3.65,0,0,0-.81-1.32,4.53,4.53,0,0,0-1.14-.88,7.39,7.39,0,0,0-1-.4c-.33-.13-.63-.22-1-.35a9.79,9.79,0,0,0-1.29-.13A5.67,5.67,0,0,0,78,31a4.52,4.52,0,0,0-1.59,1.32,2.94,2.94,0,0,0-.57,1.85,4.07,4.07,0,0,0,.66,2.17Z" transform="translate(-1.68 -1.07)"/><path class="cls-1" d="M93.28,30.1l2-.06h.62a1.58,1.58,0,0,1,.36,0,4,4,0,0,1,.84.19,2.1,2.1,0,0,1,1.26.72,1.92,1.92,0,0,1-.67,3.26l-1,.35.78.85,1.48,1.7.59.66a2.48,2.48,0,0,0,.48.47c.22.06.45.16.81.25l.92.09v.29h-1.06l-1.23-.07a3.08,3.08,0,0,1-1.15-.53l-.59-.57L95.6,35.44,95.15,35l-.59-.19-1.18-.06v2.29a2,2,0,0,0,.25,1.16.92.92,0,0,0,.67.25H95l0,.34-2.35,0-2.1,0v-.37a2.29,2.29,0,0,0,1-.16l.25-.22A2.18,2.18,0,0,0,91.93,37v-5a2.17,2.17,0,0,0-.22-1.19.91.91,0,0,0-.64-.41l-.7-.13V30.1h2.91Zm.11,4.14,1.43.13a4,4,0,0,0,.92-.09c.22,0,.45-.13.64-.16a4.64,4.64,0,0,0,.76-.44,1.21,1.21,0,0,0,.48-1.07,1.24,1.24,0,0,0-.22-.76,2.19,2.19,0,0,0-.53-.66,2.38,2.38,0,0,0-.76-.44c-.31-.12-.56-.18-.78-.25a2.72,2.72,0,0,0-.76-.06l-1.18.06v3.73Z" transform="translate(-1.68 -1.07)"/><path class="cls-1" d="M104.8,31.42a1.09,1.09,0,0,0-.23-.69,1.06,1.06,0,0,0-.74-.28l-.69,0V30h3l1.38,2,1.77,2.57L111,37.26,115.54,30h3.24v.38l-.31,0a1.94,1.94,0,0,0-.8.19.92.92,0,0,0-.4.44l-.05.62.08,3.92.12,1.6v.63a.45.45,0,0,0,.23.37l.28.16.43.1H119v.44l-2.55-.07-2.06,0v-.4h.37a1.3,1.3,0,0,0,.55-.07.48.48,0,0,0,.4-.28,1.46,1.46,0,0,0,.14-.82L115.69,31l-1.15,1.82-1.4,2.48-2.2,3.61h-.43l-1.78-2.54-1.95-2.86-1.29-1.85v4.87l0,.91a.84.84,0,0,0,.28.75,2.36,2.36,0,0,0,.57.26l.57.06v.34h-1.43l-1,0h-.29l-1.06,0v-.37l.69,0a3.51,3.51,0,0,0,.49-.35c.23-.19.31-.66.31-1.45l.06-.78.11-4.43Z" transform="translate(-1.68 -1.07)"/><path class="cls-1" d="M126.42,29.67h.29l2,3.26,1.69,2.73,1.09,1.73.52.53a2.43,2.43,0,0,0,.69.38,7.91,7.91,0,0,0,.95.06v.47h-1.83l-1.06,0h-.28l-1.75,0v-.4l.72-.07a.74.74,0,0,0,.28,0c.09,0,.12,0,.2-.09l.09-.16,0-.06a2,2,0,0,0-.34-.76l-1.2-2h-4.3l-.94,1.95c0,.09-.09.25-.15.44A1.08,1.08,0,0,0,123,38c0,.34.4.5,1.15.5l-.06.38L122,38.8l-1.92.07v-.41a2.82,2.82,0,0,0,.49,0,1.83,1.83,0,0,0,.52-.1,1.37,1.37,0,0,0,.54-.47,4.11,4.11,0,0,0,.66-.88l4.13-7.31Zm-2,5.18h3.87l-2.09-3.48-1.77,3.48Z" transform="translate(-1.68 -1.07)"/><path class="cls-1" d="M144.24,30v2.23h-.56a2.38,2.38,0,0,0-.12-.88c0-.19-.21-.34-.5-.53l-.65-.28h-3.19V37l0,.76a.81.81,0,0,0,.21.37,1.73,1.73,0,0,0,.62.29l.77,0v.37l-2.45,0-2.39,0v-.37h.8a1.34,1.34,0,0,0,.56-.25c.15-.13.21-.47.24-1.1V30.58h-1.77c-.33,0-.65,0-.95,0a3.59,3.59,0,0,0-.94.22c-.33,0-.56.28-.71.81l-.12.63h-.56V30Z" transform="translate(-1.68 -1.07)"/><path class="cls-1" d="M146.86,31.64a1.31,1.31,0,0,0-.27-1,1.24,1.24,0,0,0-.88-.25h-.33V30L148,30h1.85l0,.38h-.39l-.58.09c-.19,0-.31.16-.41.41a5.57,5.57,0,0,0-.09.72l0,.51v5a1.6,1.6,0,0,0,.25,1.07.86.86,0,0,0,.47.15c.22,0,.47,0,.75.07v.37h-4.5v-.44h.55a1,1,0,0,0,.5-.12l.3-.25a3.1,3.1,0,0,0,.19-1.19V31.64Z" transform="translate(-1.68 -1.07)"/><path class="cls-1" d="M151.75,29.91l2.52.1,2.32-.1,0,.41H156a1.67,1.67,0,0,0-.72.22c-.23.09-.35.47-.38,1.19v2.79l4.41-3.32.35-.22c0-.06.06-.19.11-.38s-.29-.28-.9-.31v-.38h4.29v.38l-1.1.09a1.18,1.18,0,0,0-.61.25,4.24,4.24,0,0,0-.84.54l-3.56,2.51,4.75,3.7a5.74,5.74,0,0,0,1.22.79,5.26,5.26,0,0,0,1.36.16v.37l-1.57-.06-1.94,0a1.27,1.27,0,0,0-.32-.5.93.93,0,0,0-.38-.38l-1.07-.85-1.54-1.22-1.68-1.26-1,.66V37a2.07,2.07,0,0,0,.12.78.49.49,0,0,0,.35.38l1.19.13v.4l-2.38-.06-2.38.06v-.4a3.1,3.1,0,0,0,.87-.1.79.79,0,0,0,.46-.31,3.54,3.54,0,0,0,.15-.7V32.11l0-.85,0-.28c0-.13-.14-.25-.41-.44a3.19,3.19,0,0,0-1.1-.22v-.41Z" transform="translate(-1.68 -1.07)"/></svg>